<svg xmlns="http://www.w3.org/2000/svg" xmlns:xlink="http://www.w3.org/1999/xlink" xmlns:lucid="lucid" width="820.4" height="350.6"><g transform="translate(-80 -80)" lucid:page-tab-id="0_0"><path d="M100 100h174v56.93H100zM274 100h266.4v56.93H274zM540.4 100h170v56.93h-170zM710.4 100h170v56.93h-170z" fill="#f2f3f5"/><path d="M100 156.93h174v67H100zM274 156.93h266.4v67H274zM540.4 156.93h170v67h-170zM710.4 156.93h170v67h-170z" fill="#fff0f0"/><path d="M100 223.93h174v46.67H100zM274 223.93h266.4v46.67H274zM540.4 223.93h170v46.67h-170zM710.4 223.93h170v46.67h-170zM100 270.6h174v46.67H100zM274 270.6h266.4v46.67H274zM540.4 270.6h170v46.67h-170zM710.4 270.6h170v46.67h-170z" fill="#fff3d9"/><path d="M100 317.27h174v46.66H100zM274 317.27h266.4v46.66H274zM540.4 317.27h170v46.66h-170zM710.4 317.27h170v46.66h-170zM100 363.93h174v46.67H100zM274 363.93h266.4v46.67H274zM540.4 363.93h170v46.67h-170zM710.4 363.93h170v46.67h-170z" fill="#e3fae3"/><path d="M100 100v56.93M274 100v56.93M540.4 100v56.93M710.4 100v56.93M880.4 100v56.93M100 156.93v67M274 156.93v67M540.4 156.93v67M710.4 156.93v67M880.4 156.93v67M100 223.93v46.67M274 223.93v46.67M540.4 223.93v46.67M710.4 223.93v46.67M880.4 223.93v46.67M100 270.6v46.67M274 270.6v46.67M540.4 270.6v46.67M710.4 270.6v46.67M880.4 270.6v46.67M100 317.27v46.66M274 317.27v46.66M540.4 317.27v46.66M710.4 317.27v46.66M880.4 317.27v46.66M100 363.93v46.67M274 363.93v46.67M540.4 363.93v46.67M710.4 363.93v46.67M880.4 363.93v46.67M100 100h174M274 100h266.4M540.4 100h170M710.4 100h170M100 156.93h174M274 156.93h266.4M540.4 156.93h170M710.4 156.93h170M100 223.93h174M274 223.93h266.4M540.4 223.93h170M710.4 223.93h170M100 270.6h174M274 270.6h266.4M540.4 270.6h170M710.4 270.6h170M100 317.27h174M274 317.27h266.4M540.4 317.27h170M710.4 317.27h170M100 363.93h174M100 410.6h174M274 363.93h266.4M274 410.6h266.4M540.4 363.93h170M540.4 410.6h170M710.4 363.93h170M710.4 410.6h170" stroke="#5e5e5e" fill="none"/><use xlink:href="#a" transform="matrix(1,0,0,1,105,105) translate(21.24197530864197 27.41111111111111)"/><use xlink:href="#b" transform="matrix(1,0,0,1,105,105) translate(102.66913580246914 27.41111111111111)"/><use xlink:href="#c" transform="matrix(1,0,0,1,279,105) translate(84.66296296296295 27.41111111111111)"/><use xlink:href="#d" transform="matrix(1,0,0,1,545.395061728395,105) translate(54.007407407407406 27.41111111111111)"/><use xlink:href="#e" transform="matrix(1,0,0,1,715.395061728395,105) translate(24.782716049382707 15.677777777777777)"/><use xlink:href="#f" transform="matrix(1,0,0,1,715.395061728395,105) translate(117.88888888888889 15.677777777777777)"/><use xlink:href="#g" transform="matrix(1,0,0,1,715.395061728395,105) translate(43.1432098765432 39.144444444444446)"/><use xlink:href="#h" transform="matrix(1,0,0,1,105,161.93333333333334) translate(0 31.96666666666667)"/><use xlink:href="#i" transform="matrix(1,0,0,1,279,161.93333333333334) translate(0 21.566666666666663)"/><use xlink:href="#j" transform="matrix(1,0,0,1,279,161.93333333333334) translate(68.2740740740741 21.566666666666663)"/><use xlink:href="#k" transform="matrix(1,0,0,1,279,161.93333333333334) translate(110.64444444444447 21.566666666666663)"/><use xlink:href="#l" transform="matrix(1,0,0,1,279,161.93333333333334) translate(171.31111111111116 21.566666666666663)"/><use xlink:href="#m" transform="matrix(1,0,0,1,279,161.93333333333334) translate(0 42.36666666666667)"/><use xlink:href="#n" transform="matrix(1,0,0,1,279,161.93333333333334) translate(83.63333333333334 42.36666666666667)"/><use xlink:href="#o" transform="matrix(1,0,0,1,545.395061728395,161.93333333333334) translate(0 32.05555555555556)"/><use xlink:href="#p" transform="matrix(1,0,0,1,715.395061728395,161.93333333333334) translate(74.72777777777777 31.96666666666667)"/><use xlink:href="#q" transform="matrix(1,0,0,1,105,228.93333333333334) translate(0 21.96666666666667)"/><use xlink:href="#r" transform="matrix(1,0,0,1,279,228.93333333333334) translate(0 22.055555555555557)"/><use xlink:href="#s" transform="matrix(1,0,0,1,545.395061728395,228.93333333333334) translate(0 22.055555555555557)"/><use xlink:href="#t" transform="matrix(1,0,0,1,715.395061728395,228.93333333333334) translate(68.49259259259259 21.96666666666667)"/><use xlink:href="#u" transform="matrix(1,0,0,1,105,275.6) translate(0 21.96666666666667)"/><use xlink:href="#v" transform="matrix(1,0,0,1,279,275.6) translate(0 22.055555555555557)"/><use xlink:href="#w" transform="matrix(1,0,0,1,545.395061728395,275.6) translate(0 22.055555555555557)"/><use xlink:href="#x" transform="matrix(1,0,0,1,715.395061728395,275.6) translate(43.04629629629629 21.96666666666667)"/><use xlink:href="#y" transform="matrix(1,0,0,1,715.395061728395,275.6) translate(93.9388888888889 21.96666666666667)"/><g><use xlink:href="#z" transform="matrix(1,0,0,1,105,322.26666666666665) translate(0 21.96666666666667)"/></g><g><use xlink:href="#A" transform="matrix(1,0,0,1,279,322.26666666666665) translate(0 22.055555555555557)"/></g><g><use xlink:href="#B" transform="matrix(1,0,0,1,545.395061728395,322.26666666666665) translate(0 22.055555555555557)"/></g><g><use xlink:href="#C" transform="matrix(1,0,0,1,715.395061728395,322.26666666666665) translate(71.35740740740741 21.96666666666667)"/></g><g><use xlink:href="#D" transform="matrix(1,0,0,1,105,368.93333333333334) translate(0 21.96666666666667)"/></g><g><use xlink:href="#E" transform="matrix(1,0,0,1,279,368.93333333333334) translate(0 22.055555555555557)"/></g><g><use xlink:href="#B" transform="matrix(1,0,0,1,545.395061728395,368.93333333333334) translate(0 22.055555555555557)"/></g><g><use xlink:href="#x" transform="matrix(1,0,0,1,715.395061728395,368.93333333333334) translate(45.911111111111104 21.96666666666667)"/><use xlink:href="#F" transform="matrix(1,0,0,1,715.395061728395,368.93333333333334) translate(96.8037037037037 21.96666666666667)"/></g><defs><path d="M220-157c-53 9-28 100-34 157h-49v-107c1-27-5-49-29-50C55-147 81-57 75 0H25l-1-190h47c2 12-1 28 3 38 10-53 101-56 108 0 13-22 24-43 59-42 82 1 51 116 57 194h-49v-107c-1-25-5-48-29-50" id="G"/><path d="M185-48c-13 30-37 53-82 52C43 2 14-33 14-96s30-98 90-98c62 0 83 45 84 108H66c0 31 8 55 39 56 18 0 30-7 34-22zm-45-69c5-46-57-63-70-21-2 6-4 13-4 21h74" id="H"/><path d="M135-194c52 0 70 43 70 98 0 56-19 99-73 100-30 1-46-15-58-35L72 0H24l1-261h50v104c11-23 29-37 60-37zM114-30c31 0 40-27 40-66 0-37-7-63-39-63s-41 28-41 65c0 36 8 64 40 64" id="I"/><path d="M135-150c-39-12-60 13-60 57V0H25l-1-190h47c2 13-1 29 3 40 6-28 27-53 61-41v41" id="J"/><g id="a"><use transform="matrix(0.054320987654320994,0,0,0.054320987654320994,0,0)" xlink:href="#G"/><use transform="matrix(0.054320987654320994,0,0,0.054320987654320994,17.38271604938272,0)" xlink:href="#H"/><use transform="matrix(0.054320987654320994,0,0,0.054320987654320994,28.24691358024692,0)" xlink:href="#G"/><use transform="matrix(0.054320987654320994,0,0,0.054320987654320994,45.62962962962963,0)" xlink:href="#I"/><use transform="matrix(0.054320987654320994,0,0,0.054320987654320994,57.52592592592593,0)" xlink:href="#H"/><use transform="matrix(0.054320987654320994,0,0,0.054320987654320994,68.39012345679014,0)" xlink:href="#J"/></g><path d="M115-3C79 11 28 4 28-45v-112H4v-33h27l15-45h31v45h36v33H77v99c-1 23 16 31 38 25v30" id="K"/><path d="M123 10C108 53 80 86 19 72V37c35 8 53-11 59-39L3-190h52l48 148c12-52 28-100 44-148h51" id="L"/><path d="M135-194c53 0 70 44 70 98 0 56-19 98-73 100-31 1-45-17-59-34 3 33 2 69 2 105H25l-1-265h48c2 10 0 23 3 31 11-24 29-35 60-35zM114-30c33 0 39-31 40-66 0-38-9-64-40-64-56 0-55 130 0 130" id="M"/><g id="b"><use transform="matrix(0.054320987654320994,0,0,0.054320987654320994,0,0)" xlink:href="#K"/><use transform="matrix(0.054320987654320994,0,0,0.054320987654320994,6.464197530864198,0)" xlink:href="#L"/><use transform="matrix(0.054320987654320994,0,0,0.054320987654320994,17.328395061728397,0)" xlink:href="#M"/><use transform="matrix(0.054320987654320994,0,0,0.054320987654320994,29.224691358024696,0)" xlink:href="#H"/></g><path d="M88-194c31-1 46 15 58 34l-1-101h50l1 261h-48c-2-10 0-23-3-31C134-8 116 4 84 4 32 4 16-41 15-95c0-56 19-97 73-99zm17 164c33 0 40-30 41-66 1-37-9-64-41-64s-38 30-39 65c0 43 13 65 39 65" id="N"/><path d="M121-226c-27-7-43 5-38 36h38v33H83V0H34v-157H6v-33h28c-9-59 32-81 87-68v32" id="O"/><path d="M25-224v-37h50v37H25zM25 0v-190h50V0H25" id="P"/><path d="M135-194c87-1 58 113 63 194h-50c-7-57 23-157-34-157-59 0-34 97-39 157H25l-1-190h47c2 12-1 28 3 38 12-26 28-41 61-42" id="Q"/><path d="M110-194c64 0 96 36 96 99 0 64-35 99-97 99-61 0-95-36-95-99 0-62 34-99 96-99zm-1 164c35 0 45-28 45-65 0-40-10-65-43-65-34 0-45 26-45 65 0 36 10 65 43 65" id="R"/><g id="c"><use transform="matrix(0.054320987654320994,0,0,0.054320987654320994,0,0)" xlink:href="#N"/><use transform="matrix(0.054320987654320994,0,0,0.054320987654320994,11.896296296296297,0)" xlink:href="#H"/><use transform="matrix(0.054320987654320994,0,0,0.054320987654320994,22.760493827160495,0)" xlink:href="#O"/><use transform="matrix(0.054320987654320994,0,0,0.054320987654320994,29.224691358024696,0)" xlink:href="#P"/><use transform="matrix(0.054320987654320994,0,0,0.054320987654320994,34.656790123456794,0)" xlink:href="#Q"/><use transform="matrix(0.054320987654320994,0,0,0.054320987654320994,46.55308641975309,0)" xlink:href="#P"/><use transform="matrix(0.054320987654320994,0,0,0.054320987654320994,51.985185185185195,0)" xlink:href="#K"/><use transform="matrix(0.054320987654320994,0,0,0.054320987654320994,58.44938271604939,0)" xlink:href="#P"/><use transform="matrix(0.054320987654320994,0,0,0.054320987654320994,63.88148148148149,0)" xlink:href="#R"/><use transform="matrix(0.054320987654320994,0,0,0.054320987654320994,75.77777777777779,0)" xlink:href="#Q"/></g><path d="M137-138c1-29-70-34-71-4 15 46 118 7 119 86 1 83-164 76-172 9l43-7c4 19 20 25 44 25 33 8 57-30 24-41C81-84 22-81 20-136c-2-80 154-74 161-7" id="S"/><g id="d"><use transform="matrix(0.054320987654320994,0,0,0.054320987654320994,0,0)" xlink:href="#Q"/><use transform="matrix(0.054320987654320994,0,0,0.054320987654320994,11.896296296296297,0)" xlink:href="#R"/><use transform="matrix(0.054320987654320994,0,0,0.054320987654320994,23.792592592592595,0)" xlink:href="#K"/><use transform="matrix(0.054320987654320994,0,0,0.054320987654320994,30.256790123456796,0)" xlink:href="#H"/><use transform="matrix(0.054320987654320994,0,0,0.054320987654320994,41.12098765432099,0)" xlink:href="#S"/></g><g id="e"><use transform="matrix(0.054320987654320994,0,0,0.054320987654320994,0,0)" xlink:href="#N"/><use transform="matrix(0.054320987654320994,0,0,0.054320987654320994,11.896296296296297,0)" xlink:href="#H"/><use transform="matrix(0.054320987654320994,0,0,0.054320987654320994,22.760493827160495,0)" xlink:href="#O"/><use transform="matrix(0.054320987654320994,0,0,0.054320987654320994,29.224691358024696,0)" xlink:href="#P"/><use transform="matrix(0.054320987654320994,0,0,0.054320987654320994,34.656790123456794,0)" xlink:href="#Q"/><use transform="matrix(0.054320987654320994,0,0,0.054320987654320994,46.55308641975309,0)" xlink:href="#P"/><use transform="matrix(0.054320987654320994,0,0,0.054320987654320994,51.985185185185195,0)" xlink:href="#K"/><use transform="matrix(0.054320987654320994,0,0,0.054320987654320994,58.44938271604939,0)" xlink:href="#P"/><use transform="matrix(0.054320987654320994,0,0,0.054320987654320994,63.88148148148149,0)" xlink:href="#R"/><use transform="matrix(0.054320987654320994,0,0,0.054320987654320994,75.77777777777779,0)" xlink:href="#Q"/></g><g id="f"><use transform="matrix(0.054320987654320994,0,0,0.054320987654320994,0,0)" xlink:href="#P"/><use transform="matrix(0.054320987654320994,0,0,0.054320987654320994,5.4320987654321,0)" xlink:href="#Q"/></g><path d="M165-48c-4 18 1 34 23 27l-3 20c-29 8-62 0-52-35h-2C116-14 99 4 63 4 30 4 8-16 8-49c0-68 71-67 138-67 10-26 0-56-31-54-26 1-42 9-47 31l-32-5c8-67 160-71 144 15-5 28-9 54-15 81zM42-50c3 52 80 24 89-6 7-12 7-24 11-38-47 1-103-4-100 44" id="T"/><path d="M6 0l50-261h32L37 0H6" id="U"/><path d="M30-147c31-64 166-65 159 27C183-49 158 1 86 4 9 8 1-88 30-147zM88-20c53 0 68-48 68-100 0-31-11-51-44-50-52 1-68 46-68 97 0 32 13 53 44 53" id="V"/><path d="M44-68c0 29 11 47 38 47 30 0 42-19 51-41l28 9C148-21 126 4 82 4 31 4 10-29 12-85c3-77 74-140 146-93 12 8 15 23 18 40l-31 5c-1-22-13-36-36-36-52 0-65 49-65 101" id="W"/><path d="M51-54c-9 22 5 41 31 30L79-1C43 14 10-4 19-52l22-115H19l5-23h22l19-43h21l-9 43h35l-4 23H73" id="X"/><path d="M66-151c12-25 30-51 66-40l-6 26C45-176 58-65 38 0H6l36-190h30" id="Y"/><g id="g"><use transform="matrix(0.054320987654320994,0,0,0.054320987654320994,0,0)" xlink:href="#T"/><use transform="matrix(0.054320987654320994,0,0,0.054320987654320994,10.8641975308642,0)" xlink:href="#U"/><use transform="matrix(0.054320987654320994,0,0,0.054320987654320994,15.155555555555557,0)" xlink:href="#U"/><use transform="matrix(0.054320987654320994,0,0,0.054320987654320994,19.446913580246918,0)" xlink:href="#V"/><use transform="matrix(0.054320987654320994,0,0,0.054320987654320994,30.311111111111114,0)" xlink:href="#W"/><use transform="matrix(0.054320987654320994,0,0,0.054320987654320994,40.088888888888896,0)" xlink:href="#T"/><use transform="matrix(0.054320987654320994,0,0,0.054320987654320994,50.95308641975309,0)" xlink:href="#X"/><use transform="matrix(0.054320987654320994,0,0,0.054320987654320994,56.38518518518519,0)" xlink:href="#V"/><use transform="matrix(0.054320987654320994,0,0,0.054320987654320994,67.2493827160494,0)" xlink:href="#Y"/></g><path d="M108 0H70L1-190h34L89-25l56-165h34" id="Z"/><path d="M141-36C126-15 110 5 73 4 37 3 15-17 15-53c-1-64 63-63 125-63 3-35-9-54-41-54-24 1-41 7-42 31l-33-3c5-37 33-52 76-52 45 0 72 20 72 64v82c-1 20 7 32 28 27v20c-31 9-61-2-59-35zM48-53c0 20 12 33 32 33 41-3 63-29 60-74-43 2-92-5-92 41" id="aa"/><path d="M24 0v-261h32V0H24" id="ab"/><path d="M84 4C-5 8 30-112 23-190h32v120c0 31 7 50 39 49 72-2 45-101 50-169h31l1 190h-30c-1-10 1-25-2-33-11 22-28 36-60 37" id="ac"/><path d="M100-194c63 0 86 42 84 106H49c0 40 14 67 53 68 26 1 43-12 49-29l28 8c-11 28-37 45-77 45C44 4 14-33 15-96c1-61 26-98 85-98zm52 81c6-60-76-77-97-28-3 7-6 17-6 28h103" id="ad"/><path d="M-5 72V49h209v23H-5" id="ae"/><path d="M59-47c-2 24 18 29 38 22v24C64 9 27 4 27-40v-127H5v-23h24l9-43h21v43h35v23H59v120" id="af"/><path d="M179-190L93 31C79 59 56 82 12 73V49c39 6 53-20 64-50L1-190h34L92-34l54-156h33" id="ag"/><path d="M115-194c55 1 70 41 70 98S169 2 115 4C84 4 66-9 55-30l1 105H24l-1-265h31l2 30c10-21 28-34 59-34zm-8 174c40 0 45-34 45-75s-6-73-45-74c-42 0-51 32-51 76 0 43 10 73 51 73" id="ah"/><g id="h"><use transform="matrix(0.048148148148148155,0,0,0.048148148148148155,0,0)" xlink:href="#Z"/><use transform="matrix(0.048148148148148155,0,0,0.048148148148148155,8.666666666666668,0)" xlink:href="#aa"/><use transform="matrix(0.048148148148148155,0,0,0.048148148148148155,18.296296296296298,0)" xlink:href="#ab"/><use transform="matrix(0.048148148148148155,0,0,0.048148148148148155,22.1,0)" xlink:href="#ac"/><use transform="matrix(0.048148148148148155,0,0,0.048148148148148155,31.729629629629635,0)" xlink:href="#ad"/><use transform="matrix(0.048148148148148155,0,0,0.048148148148148155,41.35925925925927,0)" xlink:href="#ae"/><use transform="matrix(0.048148148148148155,0,0,0.048148148148148155,50.988888888888894,0)" xlink:href="#af"/><use transform="matrix(0.048148148148148155,0,0,0.048148148148148155,55.803703703703725,0)" xlink:href="#ag"/><use transform="matrix(0.048148148148148155,0,0,0.048148148148148155,64.47037037037039,0)" xlink:href="#ah"/><use transform="matrix(0.048148148148148155,0,0,0.048148148148148155,74.10000000000002,0)" xlink:href="#ad"/></g><path d="M30 0v-248h187v28H63v79h144v27H63v87h162V0H30" id="ai"/><path d="M210-169c-67 3-38 105-44 169h-31v-121c0-29-5-50-35-48C34-165 62-65 56 0H25l-1-190h30c1 10-1 24 2 32 10-44 99-50 107 0 11-21 27-35 58-36 85-2 47 119 55 194h-31v-121c0-29-5-49-35-48" id="aj"/><path d="M117-194c89-4 53 116 60 194h-32v-121c0-31-8-49-39-48C34-167 62-67 57 0H25l-1-190h30c1 10-1 24 2 32 11-22 29-35 61-36" id="ak"/><g id="i"><use transform="matrix(0.048148148148148155,0,0,0.048148148148148155,0,0)" xlink:href="#ai"/><use transform="matrix(0.048148148148148155,0,0,0.048148148148148155,11.555555555555557,0)" xlink:href="#ab"/><use transform="matrix(0.048148148148148155,0,0,0.048148148148148155,15.359259259259261,0)" xlink:href="#ad"/><use transform="matrix(0.048148148148148155,0,0,0.048148148148148155,24.988888888888894,0)" xlink:href="#aj"/><use transform="matrix(0.048148148148148155,0,0,0.048148148148148155,39.38518518518519,0)" xlink:href="#ad"/><use transform="matrix(0.048148148148148155,0,0,0.048148148148148155,49.01481481481483,0)" xlink:href="#ak"/><use transform="matrix(0.048148148148148155,0,0,0.048148148148148155,58.64444444444447,0)" xlink:href="#af"/></g><path d="M68-38c1 34 0 65-14 84H32c9-13 17-26 17-46H33v-38h35" id="al"/><g id="j"><use transform="matrix(0.048148148148148155,0,0,0.048148148148148155,0,0)" xlink:href="#af"/><use transform="matrix(0.048148148148148155,0,0,0.048148148148148155,4.814814814814816,0)" xlink:href="#ag"/><use transform="matrix(0.048148148148148155,0,0,0.048148148148148155,13.481481481481483,0)" xlink:href="#ah"/><use transform="matrix(0.048148148148148155,0,0,0.048148148148148155,23.111111111111114,0)" xlink:href="#ad"/><use transform="matrix(0.048148148148148155,0,0,0.048148148148148155,32.74074074074075,0)" xlink:href="#al"/></g><path d="M135-143c-3-34-86-38-87 0 15 53 115 12 119 90S17 21 10-45l28-5c4 36 97 45 98 0-10-56-113-15-118-90-4-57 82-63 122-42 12 7 21 19 24 35" id="am"/><path d="M96-169c-40 0-48 33-48 73s9 75 48 75c24 0 41-14 43-38l32 2c-6 37-31 61-74 61-59 0-76-41-82-99-10-93 101-131 147-64 4 7 5 14 7 22l-32 3c-4-21-16-35-41-35" id="an"/><path d="M100-194c62-1 85 37 85 99 1 63-27 99-86 99S16-35 15-95c0-66 28-99 85-99zM99-20c44 1 53-31 53-75 0-43-8-75-51-75s-53 32-53 75 10 74 51 75" id="ao"/><path d="M85-194c31 0 48 13 60 33l-1-100h32l1 261h-30c-2-10 0-23-3-31C134-8 116 4 85 4 32 4 16-35 15-94c0-66 23-100 70-100zm9 24c-40 0-46 34-46 75 0 40 6 74 45 74 42 0 51-32 51-76 0-42-9-74-50-73" id="ap"/><g id="k"><use transform="matrix(0.048148148148148155,0,0,0.048148148148148155,0,0)" xlink:href="#am"/><use transform="matrix(0.048148148148148155,0,0,0.048148148148148155,8.666666666666668,0)" xlink:href="#ad"/><use transform="matrix(0.048148148148148155,0,0,0.048148148148148155,18.296296296296298,0)" xlink:href="#an"/><use transform="matrix(0.048148148148148155,0,0,0.048148148148148155,26.962962962962965,0)" xlink:href="#ao"/><use transform="matrix(0.048148148148148155,0,0,0.048148148148148155,36.592592592592595,0)" xlink:href="#ak"/><use transform="matrix(0.048148148148148155,0,0,0.048148148148148155,46.22222222222223,0)" xlink:href="#ap"/></g><g id="l"><use transform="matrix(0.048148148148148155,0,0,0.048148148148148155,0,0)" xlink:href="#af"/><use transform="matrix(0.048148148148148155,0,0,0.048148148148148155,4.814814814814816,0)" xlink:href="#ad"/><use transform="matrix(0.048148148148148155,0,0,0.048148148148148155,14.444444444444446,0)" xlink:href="#aj"/><use transform="matrix(0.048148148148148155,0,0,0.048148148148148155,28.840740740740745,0)" xlink:href="#ah"/><use transform="matrix(0.048148148148148155,0,0,0.048148148148148155,38.470370370370375,0)" xlink:href="#ab"/><use transform="matrix(0.048148148148148155,0,0,0.048148148148148155,42.27407407407408,0)" xlink:href="#aa"/><use transform="matrix(0.048148148148148155,0,0,0.048148148148148155,51.90370370370371,0)" xlink:href="#af"/><use transform="matrix(0.048148148148148155,0,0,0.048148148148148155,56.71851851851853,0)" xlink:href="#ad"/></g><path d="M114-163C36-179 61-72 57 0H25l-1-190h30c1 12-1 29 2 39 6-27 23-49 58-41v29" id="aq"/><g id="m"><use transform="matrix(0.048148148148148155,0,0,0.048148148148148155,0,0)" xlink:href="#ah"/><use transform="matrix(0.048148148148148155,0,0,0.048148148148148155,9.629629629629632,0)" xlink:href="#aa"/><use transform="matrix(0.048148148148148155,0,0,0.048148148148148155,19.259259259259263,0)" xlink:href="#aq"/><use transform="matrix(0.048148148148148155,0,0,0.048148148148148155,24.988888888888894,0)" xlink:href="#aa"/><use transform="matrix(0.048148148148148155,0,0,0.048148148148148155,34.61851851851853,0)" xlink:href="#aj"/><use transform="matrix(0.048148148148148155,0,0,0.048148148148148155,49.01481481481483,0)" xlink:href="#ad"/><use transform="matrix(0.048148148148148155,0,0,0.048148148148148155,58.64444444444447,0)" xlink:href="#af"/><use transform="matrix(0.048148148148148155,0,0,0.048148148148148155,63.45925925925928,0)" xlink:href="#ad"/><use transform="matrix(0.048148148148148155,0,0,0.048148148148148155,73.0888888888889,0)" xlink:href="#aq"/></g><path d="M87 75C49 33 22-17 22-94c0-76 28-126 65-167h31c-38 41-64 92-64 168S80 34 118 75H87" id="ar"/><path d="M199 0l-22-63H83L61 0H9l90-248h61L250 0h-51zm-33-102l-36-108c-10 38-24 72-36 108h72" id="as"/><path d="M25 0v-261h50V0H25" id="at"/><path d="M190-63c-7 42-38 67-86 67-59 0-84-38-90-98-12-110 154-137 174-36l-49 2c-2-19-15-32-35-32-30 0-35 28-38 64-6 74 65 87 74 30" id="au"/><path d="M133-34C117-15 103 5 69 4 32 3 11-16 11-54c-1-60 55-63 116-61 1-26-3-47-28-47-18 1-26 9-28 27l-52-2c7-38 36-58 82-57s74 22 75 68l1 82c-1 14 12 18 25 15v27c-30 8-71 5-69-32zm-48 3c29 0 43-24 42-57-32 0-66-3-65 30 0 17 8 27 23 27" id="av"/><path d="M33-261c38 41 65 92 65 168S71 34 33 75H2C39 34 66-17 66-93S39-220 2-261h31" id="aw"/><g id="n"><use transform="matrix(0.048148148148148155,0,0,0.048148148148148155,0,0)" xlink:href="#ar"/><use transform="matrix(0.048148148148148155,0,0,0.048148148148148155,5.72962962962963,0)" xlink:href="#as"/><use transform="matrix(0.048148148148148155,0,0,0.048148148148148155,18.200000000000003,0)" xlink:href="#at"/><use transform="matrix(0.048148148148148155,0,0,0.048148148148148155,23.01481481481482,0)" xlink:href="#at"/><use transform="matrix(0.048148148148148155,0,0,0.048148148148148155,27.829629629629633,0)" xlink:href="#R"/><use transform="matrix(0.048148148148148155,0,0,0.048148148148148155,38.37407407407408,0)" xlink:href="#au"/><use transform="matrix(0.048148148148148155,0,0,0.048148148148148155,48.003703703703714,0)" xlink:href="#av"/><use transform="matrix(0.048148148148148155,0,0,0.048148148148148155,57.63333333333334,0)" xlink:href="#K"/><use transform="matrix(0.048148148148148155,0,0,0.048148148148148155,63.362962962962975,0)" xlink:href="#R"/><use transform="matrix(0.048148148148148155,0,0,0.048148148148148155,73.90740740740742,0)" xlink:href="#J"/><use transform="matrix(0.048148148148148155,0,0,0.048148148148148155,80.64814814814817,0)" xlink:href="#aw"/></g><path d="M128 0H69L1-190h53L99-40l48-150h52" id="ax"/><path d="M85 4C-2 5 27-109 22-190h50c7 57-23 150 33 157 60-5 35-97 40-157h50l1 190h-47c-2-12 1-28-3-38-12 25-28 42-61 42" id="ay"/><path d="M-4 44V30h207v14H-4" id="az"/><g id="o"><use transform="matrix(0.049382716049382706,0,0,0.049382716049382706,0,0)" xlink:href="#ax"/><use transform="matrix(0.049382716049382706,0,0,0.049382716049382706,9.87654320987654,0)" xlink:href="#av"/><use transform="matrix(0.049382716049382706,0,0,0.049382716049382706,19.75308641975308,0)" xlink:href="#at"/><use transform="matrix(0.049382716049382706,0,0,0.049382716049382706,24.691358024691354,0)" xlink:href="#ay"/><use transform="matrix(0.049382716049382706,0,0,0.049382716049382706,35.50617283950616,0)" xlink:href="#H"/><use transform="matrix(0.049382716049382706,0,0,0.049382716049382706,45.38271604938271,0)" xlink:href="#az"/><use transform="matrix(0.049382716049382706,0,0,0.049382716049382706,55.259259259259245,0)" xlink:href="#K"/><use transform="matrix(0.049382716049382706,0,0,0.049382716049382706,61.135802469135804,0)" xlink:href="#L"/><use transform="matrix(0.049382716049382706,0,0,0.049382716049382706,71.01234567901234,0)" xlink:href="#M"/><use transform="matrix(0.049382716049382706,0,0,0.049382716049382706,81.82716049382715,0)" xlink:href="#H"/></g><path d="M136-208V0H84v-208H4v-40h212v40h-80" id="aA"/><use transform="matrix(0.048148148148148155,0,0,0.048148148148148155,0,0)" xlink:href="#aA" id="p"/><path d="M101-234c-31-9-42 10-38 44h38v23H63V0H32v-167H5v-23h27c-7-52 17-82 69-68v24" id="aB"/><g id="q"><use transform="matrix(0.048148148148148155,0,0,0.048148148148148155,0,0)" xlink:href="#aq"/><use transform="matrix(0.048148148148148155,0,0,0.048148148148148155,5.72962962962963,0)" xlink:href="#ad"/><use transform="matrix(0.048148148148148155,0,0,0.048148148148148155,15.359259259259261,0)" xlink:href="#aB"/><use transform="matrix(0.048148148148148155,0,0,0.048148148148148155,20.174074074074078,0)" xlink:href="#ad"/><use transform="matrix(0.048148148148148155,0,0,0.048148148148148155,29.803703703703714,0)" xlink:href="#aq"/><use transform="matrix(0.048148148148148155,0,0,0.048148148148148155,35.53333333333334,0)" xlink:href="#ad"/><use transform="matrix(0.048148148148148155,0,0,0.048148148148148155,45.16296296296297,0)" xlink:href="#ak"/><use transform="matrix(0.048148148148148155,0,0,0.048148148148148155,54.7925925925926,0)" xlink:href="#an"/><use transform="matrix(0.048148148148148155,0,0,0.048148148148148155,63.45925925925927,0)" xlink:href="#ad"/></g><path d="M33-154v-36h34v36H33zM33 0v-36h34V0H33" id="aC"/><g id="r"><use transform="matrix(0.049382716049382706,0,0,0.049382716049382706,0,0)" xlink:href="#aa"/><use transform="matrix(0.049382716049382706,0,0,0.049382716049382706,9.87654320987654,0)" xlink:href="#ab"/><use transform="matrix(0.049382716049382706,0,0,0.049382716049382706,13.777777777777775,0)" xlink:href="#ab"/><use transform="matrix(0.049382716049382706,0,0,0.049382716049382706,17.67901234567901,0)" xlink:href="#ao"/><use transform="matrix(0.049382716049382706,0,0,0.049382716049382706,27.55555555555555,0)" xlink:href="#an"/><use transform="matrix(0.049382716049382706,0,0,0.049382716049382706,36.444444444444436,0)" xlink:href="#aa"/><use transform="matrix(0.049382716049382706,0,0,0.049382716049382706,46.32098765432097,0)" xlink:href="#af"/><use transform="matrix(0.049382716049382706,0,0,0.049382716049382706,51.25925925925925,0)" xlink:href="#ao"/><use transform="matrix(0.049382716049382706,0,0,0.049382716049382706,61.13580246913578,0)" xlink:href="#aq"/><use transform="matrix(0.049382716049382706,0,0,0.049382716049382706,67.01234567901233,0)" xlink:href="#ae"/><use transform="matrix(0.049382716049382706,0,0,0.049382716049382706,76.88888888888887,0)" xlink:href="#af"/><use transform="matrix(0.049382716049382706,0,0,0.049382716049382706,81.82716049382714,0)" xlink:href="#ag"/><use transform="matrix(0.049382716049382706,0,0,0.049382716049382706,90.71604938271602,0)" xlink:href="#ah"/><use transform="matrix(0.049382716049382706,0,0,0.049382716049382706,100.59259259259257,0)" xlink:href="#ad"/><use transform="matrix(0.049382716049382706,0,0,0.049382716049382706,110.46913580246911,0)" xlink:href="#aC"/><use transform="matrix(0.049382716049382706,0,0,0.049382716049382706,115.40740740740739,0)" xlink:href="#aC"/><use transform="matrix(0.049382716049382706,0,0,0.049382716049382706,120.34567901234563,0)" xlink:href="#J"/><use transform="matrix(0.049382716049382706,0,0,0.049382716049382706,127.25925925925924,0)" xlink:href="#H"/><use transform="matrix(0.049382716049382706,0,0,0.049382716049382706,137.13580246913577,0)" xlink:href="#O"/><use transform="matrix(0.049382716049382706,0,0,0.049382716049382706,143.0123456790123,0)" xlink:href="#H"/><use transform="matrix(0.049382716049382706,0,0,0.049382716049382706,152.88888888888883,0)" xlink:href="#J"/><use transform="matrix(0.049382716049382706,0,0,0.049382716049382706,159.8024691358024,0)" xlink:href="#H"/><use transform="matrix(0.049382716049382706,0,0,0.049382716049382706,169.67901234567893,0)" xlink:href="#Q"/><use transform="matrix(0.049382716049382706,0,0,0.049382716049382706,180.49382716049374,0)" xlink:href="#au"/><use transform="matrix(0.049382716049382706,0,0,0.049382716049382706,190.37037037037027,0)" xlink:href="#H"/></g><path d="M168-19C124 19 11 11 16-68c3-43 29-60 59-75-25-44-12-111 53-106 37 3 64 15 64 52 0 43-40 52-69 68 12 22 27 41 43 59 14-19 21-38 28-64l37 13c-8 29-19 52-34 74 12 10 32 16 52 10v35c-28 11-65-2-81-17zm-58-139c19-9 43-14 43-39 0-14-10-22-25-22-34 0-33 41-18 61zM60-68c-3 40 55 47 79 25-18-20-34-42-48-67-18 8-30 20-31 42" id="aD"/><g id="s"><use transform="matrix(0.049382716049382706,0,0,0.049382716049382706,0,0)" xlink:href="#Z"/><use transform="matrix(0.049382716049382706,0,0,0.049382716049382706,8.888888888888888,0)" xlink:href="#aa"/><use transform="matrix(0.049382716049382706,0,0,0.049382716049382706,18.76543209876543,0)" xlink:href="#ab"/><use transform="matrix(0.049382716049382706,0,0,0.049382716049382706,22.666666666666664,0)" xlink:href="#ac"/><use transform="matrix(0.049382716049382706,0,0,0.049382716049382706,32.5432098765432,0)" xlink:href="#ad"/><use transform="matrix(0.049382716049382706,0,0,0.049382716049382706,42.419753086419746,0)" xlink:href="#ae"/><use transform="matrix(0.049382716049382706,0,0,0.049382716049382706,52.29629629629628,0)" xlink:href="#af"/><use transform="matrix(0.049382716049382706,0,0,0.049382716049382706,57.23456790123457,0)" xlink:href="#ag"/><use transform="matrix(0.049382716049382706,0,0,0.049382716049382706,66.12345679012346,0)" xlink:href="#ah"/><use transform="matrix(0.049382716049382706,0,0,0.049382716049382706,76,0)" xlink:href="#ad"/><use transform="matrix(0.049382716049382706,0,0,0.049382716049382706,85.87654320987654,0)" xlink:href="#aD"/></g><g id="t"><use transform="matrix(0.048148148148148155,0,0,0.048148148148148155,0,0)" xlink:href="#aA"/><use transform="matrix(0.048148148148148155,0,0,0.048148148148148155,10.544444444444446,0)" xlink:href="#aD"/></g><g id="u"><use transform="matrix(0.048148148148148155,0,0,0.048148148148148155,0,0)" xlink:href="#an"/><use transform="matrix(0.048148148148148155,0,0,0.048148148148148155,8.666666666666668,0)" xlink:href="#ao"/><use transform="matrix(0.048148148148148155,0,0,0.048148148148148155,18.296296296296298,0)" xlink:href="#ak"/><use transform="matrix(0.048148148148148155,0,0,0.048148148148148155,27.92592592592593,0)" xlink:href="#am"/><use transform="matrix(0.048148148148148155,0,0,0.048148148148148155,36.592592592592595,0)" xlink:href="#af"/><use transform="matrix(0.048148148148148155,0,0,0.048148148148148155,41.40740740740741,0)" xlink:href="#ae"/><use transform="matrix(0.048148148148148155,0,0,0.048148148148148155,51.037037037037045,0)" xlink:href="#aq"/><use transform="matrix(0.048148148148148155,0,0,0.048148148148148155,56.76666666666667,0)" xlink:href="#ad"/><use transform="matrix(0.048148148148148155,0,0,0.048148148148148155,66.3962962962963,0)" xlink:href="#aB"/><use transform="matrix(0.048148148148148155,0,0,0.048148148148148155,71.21111111111111,0)" xlink:href="#ad"/><use transform="matrix(0.048148148148148155,0,0,0.048148148148148155,80.84074074074074,0)" xlink:href="#aq"/><use transform="matrix(0.048148148148148155,0,0,0.048148148148148155,86.57037037037037,0)" xlink:href="#ad"/><use transform="matrix(0.048148148148148155,0,0,0.048148148148148155,96.2,0)" xlink:href="#ak"/><use transform="matrix(0.048148148148148155,0,0,0.048148148148148155,105.82962962962965,0)" xlink:href="#an"/><use transform="matrix(0.048148148148148155,0,0,0.048148148148148155,114.49629629629631,0)" xlink:href="#ad"/></g><g id="v"><use transform="matrix(0.04938271604938272,0,0,0.04938271604938272,0,0)" xlink:href="#aa"/><use transform="matrix(0.04938271604938272,0,0,0.04938271604938272,9.876543209876544,0)" xlink:href="#ab"/><use transform="matrix(0.04938271604938272,0,0,0.04938271604938272,13.777777777777779,0)" xlink:href="#ab"/><use transform="matrix(0.04938271604938272,0,0,0.04938271604938272,17.679012345679013,0)" xlink:href="#ao"/><use transform="matrix(0.04938271604938272,0,0,0.04938271604938272,27.555555555555557,0)" xlink:href="#an"/><use transform="matrix(0.04938271604938272,0,0,0.04938271604938272,36.44444444444444,0)" xlink:href="#aa"/><use transform="matrix(0.04938271604938272,0,0,0.04938271604938272,46.32098765432099,0)" xlink:href="#af"/><use transform="matrix(0.04938271604938272,0,0,0.04938271604938272,51.25925925925927,0)" xlink:href="#ao"/><use transform="matrix(0.04938271604938272,0,0,0.04938271604938272,61.13580246913581,0)" xlink:href="#aq"/><use transform="matrix(0.04938271604938272,0,0,0.04938271604938272,67.01234567901234,0)" xlink:href="#ae"/><use transform="matrix(0.04938271604938272,0,0,0.04938271604938272,76.88888888888889,0)" xlink:href="#af"/><use transform="matrix(0.04938271604938272,0,0,0.04938271604938272,81.82716049382717,0)" xlink:href="#ag"/><use transform="matrix(0.04938271604938272,0,0,0.04938271604938272,90.71604938271605,0)" xlink:href="#ah"/><use transform="matrix(0.04938271604938272,0,0,0.04938271604938272,100.5925925925926,0)" xlink:href="#ad"/><use transform="matrix(0.04938271604938272,0,0,0.04938271604938272,110.46913580246914,0)" xlink:href="#aC"/><use transform="matrix(0.04938271604938272,0,0,0.04938271604938272,115.40740740740742,0)" xlink:href="#aC"/><use transform="matrix(0.04938271604938272,0,0,0.04938271604938272,120.34567901234568,0)" xlink:href="#an"/><use transform="matrix(0.04938271604938272,0,0,0.04938271604938272,129.23456790123458,0)" xlink:href="#R"/><use transform="matrix(0.04938271604938272,0,0,0.04938271604938272,140.0493827160494,0)" xlink:href="#Q"/><use transform="matrix(0.04938271604938272,0,0,0.04938271604938272,150.8641975308642,0)" xlink:href="#S"/><use transform="matrix(0.04938271604938272,0,0,0.04938271604938272,160.74074074074076,0)" xlink:href="#K"/><use transform="matrix(0.04938271604938272,0,0,0.04938271604938272,166.6172839506173,0)" xlink:href="#az"/><use transform="matrix(0.04938271604938272,0,0,0.04938271604938272,176.49382716049382,0)" xlink:href="#J"/><use transform="matrix(0.04938271604938272,0,0,0.04938271604938272,183.4074074074074,0)" xlink:href="#H"/><use transform="matrix(0.04938271604938272,0,0,0.04938271604938272,193.28395061728395,0)" xlink:href="#O"/><use transform="matrix(0.04938271604938272,0,0,0.04938271604938272,199.16049382716048,0)" xlink:href="#H"/><use transform="matrix(0.04938271604938272,0,0,0.04938271604938272,209.037037037037,0)" xlink:href="#J"/><use transform="matrix(0.04938271604938272,0,0,0.04938271604938272,215.95061728395058,0)" xlink:href="#H"/><use transform="matrix(0.04938271604938272,0,0,0.04938271604938272,225.82716049382714,0)" xlink:href="#Q"/><use transform="matrix(0.04938271604938272,0,0,0.04938271604938272,236.64197530864195,0)" xlink:href="#au"/><use transform="matrix(0.04938271604938272,0,0,0.04938271604938272,246.5185185185185,0)" xlink:href="#H"/></g><g id="w"><use transform="matrix(0.04938271604938272,0,0,0.04938271604938272,0,0)" xlink:href="#Z"/><use transform="matrix(0.04938271604938272,0,0,0.04938271604938272,8.88888888888889,0)" xlink:href="#aa"/><use transform="matrix(0.04938271604938272,0,0,0.04938271604938272,18.765432098765434,0)" xlink:href="#ab"/><use transform="matrix(0.04938271604938272,0,0,0.04938271604938272,22.666666666666668,0)" xlink:href="#ac"/><use transform="matrix(0.04938271604938272,0,0,0.04938271604938272,32.543209876543216,0)" xlink:href="#ad"/><use transform="matrix(0.04938271604938272,0,0,0.04938271604938272,42.41975308641976,0)" xlink:href="#ae"/><use transform="matrix(0.04938271604938272,0,0,0.04938271604938272,52.2962962962963,0)" xlink:href="#af"/><use transform="matrix(0.04938271604938272,0,0,0.04938271604938272,57.23456790123457,0)" xlink:href="#ag"/><use transform="matrix(0.04938271604938272,0,0,0.04938271604938272,66.12345679012347,0)" xlink:href="#ah"/><use transform="matrix(0.04938271604938272,0,0,0.04938271604938272,76.00000000000001,0)" xlink:href="#ad"/><use transform="matrix(0.04938271604938272,0,0,0.04938271604938272,85.87654320987656,0)" xlink:href="#aD"/></g><g id="x"><use transform="matrix(0.048148148148148155,0,0,0.048148148148148155,0,0)" xlink:href="#au"/><use transform="matrix(0.048148148148148155,0,0,0.048148148148148155,9.629629629629632,0)" xlink:href="#R"/><use transform="matrix(0.048148148148148155,0,0,0.048148148148148155,20.174074074074078,0)" xlink:href="#Q"/><use transform="matrix(0.048148148148148155,0,0,0.048148148148148155,30.718518518518522,0)" xlink:href="#S"/><use transform="matrix(0.048148148148148155,0,0,0.048148148148148155,40.348148148148155,0)" xlink:href="#K"/></g><g id="y"><use transform="matrix(0.048148148148148155,0,0,0.048148148148148155,0,0)" xlink:href="#aA"/><use transform="matrix(0.048148148148148155,0,0,0.048148148148148155,10.544444444444446,0)" xlink:href="#aD"/></g><path d="M24-231v-30h32v30H24zM24 0v-190h32V0H24" id="aE"/><g id="z"><use transform="matrix(0.048148148148148155,0,0,0.048148148148148155,0,0)" xlink:href="#ah"/><use transform="matrix(0.048148148148148155,0,0,0.048148148148148155,9.629629629629632,0)" xlink:href="#ao"/><use transform="matrix(0.048148148148148155,0,0,0.048148148148148155,19.259259259259263,0)" xlink:href="#aE"/><use transform="matrix(0.048148148148148155,0,0,0.048148148148148155,23.062962962962967,0)" xlink:href="#ak"/><use transform="matrix(0.048148148148148155,0,0,0.048148148148148155,32.6925925925926,0)" xlink:href="#af"/><use transform="matrix(0.048148148148148155,0,0,0.048148148148148155,37.50740740740741,0)" xlink:href="#ad"/><use transform="matrix(0.048148148148148155,0,0,0.048148148148148155,47.13703703703705,0)" xlink:href="#aq"/></g><g id="A"><use transform="matrix(0.04938271604938272,0,0,0.04938271604938272,0,0)" xlink:href="#aa"/><use transform="matrix(0.04938271604938272,0,0,0.04938271604938272,9.876543209876544,0)" xlink:href="#ab"/><use transform="matrix(0.04938271604938272,0,0,0.04938271604938272,13.777777777777779,0)" xlink:href="#ab"/><use transform="matrix(0.04938271604938272,0,0,0.04938271604938272,17.679012345679013,0)" xlink:href="#ao"/><use transform="matrix(0.04938271604938272,0,0,0.04938271604938272,27.555555555555557,0)" xlink:href="#an"/><use transform="matrix(0.04938271604938272,0,0,0.04938271604938272,36.44444444444444,0)" xlink:href="#aa"/><use transform="matrix(0.04938271604938272,0,0,0.04938271604938272,46.32098765432099,0)" xlink:href="#af"/><use transform="matrix(0.04938271604938272,0,0,0.04938271604938272,51.25925925925927,0)" xlink:href="#ao"/><use transform="matrix(0.04938271604938272,0,0,0.04938271604938272,61.13580246913581,0)" xlink:href="#aq"/><use transform="matrix(0.04938271604938272,0,0,0.04938271604938272,67.01234567901234,0)" xlink:href="#ae"/><use transform="matrix(0.04938271604938272,0,0,0.04938271604938272,76.88888888888889,0)" xlink:href="#af"/><use transform="matrix(0.04938271604938272,0,0,0.04938271604938272,81.82716049382717,0)" xlink:href="#ag"/><use transform="matrix(0.04938271604938272,0,0,0.04938271604938272,90.71604938271605,0)" xlink:href="#ah"/><use transform="matrix(0.04938271604938272,0,0,0.04938271604938272,100.5925925925926,0)" xlink:href="#ad"/><use transform="matrix(0.04938271604938272,0,0,0.04938271604938272,110.46913580246914,0)" xlink:href="#aC"/><use transform="matrix(0.04938271604938272,0,0,0.04938271604938272,115.40740740740742,0)" xlink:href="#aC"/><use transform="matrix(0.04938271604938272,0,0,0.04938271604938272,120.34567901234568,0)" xlink:href="#M"/><use transform="matrix(0.04938271604938272,0,0,0.04938271604938272,131.1604938271605,0)" xlink:href="#R"/><use transform="matrix(0.04938271604938272,0,0,0.04938271604938272,141.97530864197532,0)" xlink:href="#P"/><use transform="matrix(0.04938271604938272,0,0,0.04938271604938272,146.9135802469136,0)" xlink:href="#Q"/><use transform="matrix(0.04938271604938272,0,0,0.04938271604938272,157.7283950617284,0)" xlink:href="#K"/><use transform="matrix(0.04938271604938272,0,0,0.04938271604938272,163.60493827160494,0)" xlink:href="#H"/><use transform="matrix(0.04938271604938272,0,0,0.04938271604938272,173.48148148148147,0)" xlink:href="#J"/></g><path d="M86-200l42-18 12 35-44 11 32 37-32 21-26-44-26 44-32-21 33-37-44-11 12-35 42 18-3-48h38" id="aF"/><g id="B"><use transform="matrix(0.04938271604938272,0,0,0.04938271604938272,0,0)" xlink:href="#Z"/><use transform="matrix(0.04938271604938272,0,0,0.04938271604938272,8.88888888888889,0)" xlink:href="#aa"/><use transform="matrix(0.04938271604938272,0,0,0.04938271604938272,18.765432098765434,0)" xlink:href="#ab"/><use transform="matrix(0.04938271604938272,0,0,0.04938271604938272,22.666666666666668,0)" xlink:href="#ac"/><use transform="matrix(0.04938271604938272,0,0,0.04938271604938272,32.543209876543216,0)" xlink:href="#ad"/><use transform="matrix(0.04938271604938272,0,0,0.04938271604938272,42.41975308641976,0)" xlink:href="#ae"/><use transform="matrix(0.04938271604938272,0,0,0.04938271604938272,52.2962962962963,0)" xlink:href="#af"/><use transform="matrix(0.04938271604938272,0,0,0.04938271604938272,57.23456790123457,0)" xlink:href="#ag"/><use transform="matrix(0.04938271604938272,0,0,0.04938271604938272,66.12345679012347,0)" xlink:href="#ah"/><use transform="matrix(0.04938271604938272,0,0,0.04938271604938272,76.00000000000001,0)" xlink:href="#ad"/><use transform="matrix(0.04938271604938272,0,0,0.04938271604938272,85.87654320987656,0)" xlink:href="#aF"/></g><g id="C"><use transform="matrix(0.048148148148148155,0,0,0.048148148148148155,0,0)" xlink:href="#aA"/><use transform="matrix(0.048148148148148155,0,0,0.048148148148148155,10.544444444444446,0)" xlink:href="#aF"/></g><g id="D"><use transform="matrix(0.048148148148148155,0,0,0.048148148148148155,0,0)" xlink:href="#an"/><use transform="matrix(0.048148148148148155,0,0,0.048148148148148155,8.666666666666668,0)" xlink:href="#ao"/><use transform="matrix(0.048148148148148155,0,0,0.048148148148148155,18.296296296296298,0)" xlink:href="#ak"/><use transform="matrix(0.048148148148148155,0,0,0.048148148148148155,27.92592592592593,0)" xlink:href="#am"/><use transform="matrix(0.048148148148148155,0,0,0.048148148148148155,36.592592592592595,0)" xlink:href="#af"/><use transform="matrix(0.048148148148148155,0,0,0.048148148148148155,41.40740740740741,0)" xlink:href="#ae"/><use transform="matrix(0.048148148148148155,0,0,0.048148148148148155,51.037037037037045,0)" xlink:href="#ah"/><use transform="matrix(0.048148148148148155,0,0,0.048148148148148155,60.66666666666668,0)" xlink:href="#ao"/><use transform="matrix(0.048148148148148155,0,0,0.048148148148148155,70.2962962962963,0)" xlink:href="#aE"/><use transform="matrix(0.048148148148148155,0,0,0.048148148148148155,74.10000000000001,0)" xlink:href="#ak"/><use transform="matrix(0.048148148148148155,0,0,0.048148148148148155,83.72962962962964,0)" xlink:href="#af"/><use transform="matrix(0.048148148148148155,0,0,0.048148148148148155,88.54444444444445,0)" xlink:href="#ad"/><use transform="matrix(0.048148148148148155,0,0,0.048148148148148155,98.17407407407408,0)" xlink:href="#aq"/></g><g id="E"><use transform="matrix(0.04938271604938272,0,0,0.04938271604938272,0,0)" xlink:href="#aa"/><use transform="matrix(0.04938271604938272,0,0,0.04938271604938272,9.876543209876544,0)" xlink:href="#ab"/><use transform="matrix(0.04938271604938272,0,0,0.04938271604938272,13.777777777777779,0)" xlink:href="#ab"/><use transform="matrix(0.04938271604938272,0,0,0.04938271604938272,17.679012345679013,0)" xlink:href="#ao"/><use transform="matrix(0.04938271604938272,0,0,0.04938271604938272,27.555555555555557,0)" xlink:href="#an"/><use transform="matrix(0.04938271604938272,0,0,0.04938271604938272,36.44444444444444,0)" xlink:href="#aa"/><use transform="matrix(0.04938271604938272,0,0,0.04938271604938272,46.32098765432099,0)" xlink:href="#af"/><use transform="matrix(0.04938271604938272,0,0,0.04938271604938272,51.25925925925927,0)" xlink:href="#ao"/><use transform="matrix(0.04938271604938272,0,0,0.04938271604938272,61.13580246913581,0)" xlink:href="#aq"/><use transform="matrix(0.04938271604938272,0,0,0.04938271604938272,67.01234567901234,0)" xlink:href="#ae"/><use transform="matrix(0.04938271604938272,0,0,0.04938271604938272,76.88888888888889,0)" xlink:href="#af"/><use transform="matrix(0.04938271604938272,0,0,0.04938271604938272,81.82716049382717,0)" xlink:href="#ag"/><use transform="matrix(0.04938271604938272,0,0,0.04938271604938272,90.71604938271605,0)" xlink:href="#ah"/><use transform="matrix(0.04938271604938272,0,0,0.04938271604938272,100.5925925925926,0)" xlink:href="#ad"/><use transform="matrix(0.04938271604938272,0,0,0.04938271604938272,110.46913580246914,0)" xlink:href="#aC"/><use transform="matrix(0.04938271604938272,0,0,0.04938271604938272,115.40740740740742,0)" xlink:href="#aC"/><use transform="matrix(0.04938271604938272,0,0,0.04938271604938272,120.34567901234568,0)" xlink:href="#au"/><use transform="matrix(0.04938271604938272,0,0,0.04938271604938272,130.22222222222223,0)" xlink:href="#R"/><use transform="matrix(0.04938271604938272,0,0,0.04938271604938272,141.03703703703704,0)" xlink:href="#Q"/><use transform="matrix(0.04938271604938272,0,0,0.04938271604938272,151.85185185185185,0)" xlink:href="#S"/><use transform="matrix(0.04938271604938272,0,0,0.04938271604938272,161.7283950617284,0)" xlink:href="#K"/><use transform="matrix(0.04938271604938272,0,0,0.04938271604938272,167.60493827160494,0)" xlink:href="#az"/><use transform="matrix(0.04938271604938272,0,0,0.04938271604938272,177.48148148148147,0)" xlink:href="#M"/><use transform="matrix(0.04938271604938272,0,0,0.04938271604938272,188.29629629629628,0)" xlink:href="#R"/><use transform="matrix(0.04938271604938272,0,0,0.04938271604938272,199.1111111111111,0)" xlink:href="#P"/><use transform="matrix(0.04938271604938272,0,0,0.04938271604938272,204.04938271604937,0)" xlink:href="#Q"/><use transform="matrix(0.04938271604938272,0,0,0.04938271604938272,214.86419753086417,0)" xlink:href="#K"/><use transform="matrix(0.04938271604938272,0,0,0.04938271604938272,220.7407407407407,0)" xlink:href="#H"/><use transform="matrix(0.04938271604938272,0,0,0.04938271604938272,230.61728395061726,0)" xlink:href="#J"/></g><g id="F"><use transform="matrix(0.048148148148148155,0,0,0.048148148148148155,0,0)" xlink:href="#aA"/><use transform="matrix(0.048148148148148155,0,0,0.048148148148148155,10.544444444444446,0)" xlink:href="#aF"/></g></defs></g></svg>