<svg xmlns="http://www.w3.org/2000/svg" xmlns:xlink="http://www.w3.org/1999/xlink" xmlns:lucid="lucid" width="509" height="196.27"><g transform="translate(-80 -80)" lucid:page-tab-id="0_0"><path d="M100 100h185v56.93H100zM285 100h284v56.93H285z" fill="#f2f3f5"/><path d="M100 156.93h185v52.67H100zM285 156.93h284v52.67H285z" fill="#fff3d9"/><path d="M100 209.6h185v46.67H100zM285 209.6h284v46.67H285z" fill="#fff3d9"/><path d="M100 100v56.93M285 100v56.93M569 100v56.93M100 156.93v52.67M285 156.93v52.67M569 156.93v52.67M100 209.6v46.67M285 209.6v46.67M569 209.6v46.67M100 100h185M285 100h284M100 156.93h185M285 156.93h284M100 209.6h185M100 256.27h185M285 209.6h284M285 256.27h284" stroke="#5e5e5e" fill="none"/><use xlink:href="#a" transform="matrix(1,0,0,1,105,105) translate(26.74197530864197 27.41111111111111)"/><use xlink:href="#b" transform="matrix(1,0,0,1,105,105) translate(108.16913580246914 27.41111111111111)"/><use xlink:href="#c" transform="matrix(1,0,0,1,290,105) translate(93.16296296296295 27.41111111111111)"/><use xlink:href="#d" transform="matrix(1,0,0,1,105,161.93333333333334) translate(0 24.96666666666667)"/><use xlink:href="#e" transform="matrix(1,0,0,1,290,161.93333333333334) translate(0 24.96666666666667)"/><use xlink:href="#f" transform="matrix(1,0,0,1,290,161.93333333333334) translate(135.63333333333335 24.96666666666667)"/><use xlink:href="#g" transform="matrix(1,0,0,1,105,214.60000000000002) translate(0 21.96666666666667)"/><g><use xlink:href="#e" transform="matrix(1,0,0,1,290,214.60000000000002) translate(0 21.96666666666667)"/><use xlink:href="#h" transform="matrix(1,0,0,1,290,214.60000000000002) translate(135.63333333333335 21.96666666666667)"/></g><defs><path d="M220-157c-53 9-28 100-34 157h-49v-107c1-27-5-49-29-50C55-147 81-57 75 0H25l-1-190h47c2 12-1 28 3 38 10-53 101-56 108 0 13-22 24-43 59-42 82 1 51 116 57 194h-49v-107c-1-25-5-48-29-50" id="i"/><path d="M185-48c-13 30-37 53-82 52C43 2 14-33 14-96s30-98 90-98c62 0 83 45 84 108H66c0 31 8 55 39 56 18 0 30-7 34-22zm-45-69c5-46-57-63-70-21-2 6-4 13-4 21h74" id="j"/><path d="M135-194c52 0 70 43 70 98 0 56-19 99-73 100-30 1-46-15-58-35L72 0H24l1-261h50v104c11-23 29-37 60-37zM114-30c31 0 40-27 40-66 0-37-7-63-39-63s-41 28-41 65c0 36 8 64 40 64" id="k"/><path d="M135-150c-39-12-60 13-60 57V0H25l-1-190h47c2 13-1 29 3 40 6-28 27-53 61-41v41" id="l"/><g id="a"><use transform="matrix(0.054320987654320994,0,0,0.054320987654320994,0,0)" xlink:href="#i"/><use transform="matrix(0.054320987654320994,0,0,0.054320987654320994,17.38271604938272,0)" xlink:href="#j"/><use transform="matrix(0.054320987654320994,0,0,0.054320987654320994,28.24691358024692,0)" xlink:href="#i"/><use transform="matrix(0.054320987654320994,0,0,0.054320987654320994,45.62962962962963,0)" xlink:href="#k"/><use transform="matrix(0.054320987654320994,0,0,0.054320987654320994,57.52592592592593,0)" xlink:href="#j"/><use transform="matrix(0.054320987654320994,0,0,0.054320987654320994,68.39012345679014,0)" xlink:href="#l"/></g><path d="M115-3C79 11 28 4 28-45v-112H4v-33h27l15-45h31v45h36v33H77v99c-1 23 16 31 38 25v30" id="m"/><path d="M123 10C108 53 80 86 19 72V37c35 8 53-11 59-39L3-190h52l48 148c12-52 28-100 44-148h51" id="n"/><path d="M135-194c53 0 70 44 70 98 0 56-19 98-73 100-31 1-45-17-59-34 3 33 2 69 2 105H25l-1-265h48c2 10 0 23 3 31 11-24 29-35 60-35zM114-30c33 0 39-31 40-66 0-38-9-64-40-64-56 0-55 130 0 130" id="o"/><g id="b"><use transform="matrix(0.054320987654320994,0,0,0.054320987654320994,0,0)" xlink:href="#m"/><use transform="matrix(0.054320987654320994,0,0,0.054320987654320994,6.464197530864198,0)" xlink:href="#n"/><use transform="matrix(0.054320987654320994,0,0,0.054320987654320994,17.328395061728397,0)" xlink:href="#o"/><use transform="matrix(0.054320987654320994,0,0,0.054320987654320994,29.224691358024696,0)" xlink:href="#j"/></g><path d="M88-194c31-1 46 15 58 34l-1-101h50l1 261h-48c-2-10 0-23-3-31C134-8 116 4 84 4 32 4 16-41 15-95c0-56 19-97 73-99zm17 164c33 0 40-30 41-66 1-37-9-64-41-64s-38 30-39 65c0 43 13 65 39 65" id="p"/><path d="M121-226c-27-7-43 5-38 36h38v33H83V0H34v-157H6v-33h28c-9-59 32-81 87-68v32" id="q"/><path d="M25-224v-37h50v37H25zM25 0v-190h50V0H25" id="r"/><path d="M135-194c87-1 58 113 63 194h-50c-7-57 23-157-34-157-59 0-34 97-39 157H25l-1-190h47c2 12-1 28 3 38 12-26 28-41 61-42" id="s"/><path d="M110-194c64 0 96 36 96 99 0 64-35 99-97 99-61 0-95-36-95-99 0-62 34-99 96-99zm-1 164c35 0 45-28 45-65 0-40-10-65-43-65-34 0-45 26-45 65 0 36 10 65 43 65" id="t"/><g id="c"><use transform="matrix(0.054320987654320994,0,0,0.054320987654320994,0,0)" xlink:href="#p"/><use transform="matrix(0.054320987654320994,0,0,0.054320987654320994,11.896296296296297,0)" xlink:href="#j"/><use transform="matrix(0.054320987654320994,0,0,0.054320987654320994,22.760493827160495,0)" xlink:href="#q"/><use transform="matrix(0.054320987654320994,0,0,0.054320987654320994,29.224691358024696,0)" xlink:href="#r"/><use transform="matrix(0.054320987654320994,0,0,0.054320987654320994,34.656790123456794,0)" xlink:href="#s"/><use transform="matrix(0.054320987654320994,0,0,0.054320987654320994,46.55308641975309,0)" xlink:href="#r"/><use transform="matrix(0.054320987654320994,0,0,0.054320987654320994,51.985185185185195,0)" xlink:href="#m"/><use transform="matrix(0.054320987654320994,0,0,0.054320987654320994,58.44938271604939,0)" xlink:href="#r"/><use transform="matrix(0.054320987654320994,0,0,0.054320987654320994,63.88148148148149,0)" xlink:href="#t"/><use transform="matrix(0.054320987654320994,0,0,0.054320987654320994,75.77777777777779,0)" xlink:href="#s"/></g><path d="M114-163C36-179 61-72 57 0H25l-1-190h30c1 12-1 29 2 39 6-27 23-49 58-41v29" id="u"/><path d="M100-194c63 0 86 42 84 106H49c0 40 14 67 53 68 26 1 43-12 49-29l28 8c-11 28-37 45-77 45C44 4 14-33 15-96c1-61 26-98 85-98zm52 81c6-60-76-77-97-28-3 7-6 17-6 28h103" id="v"/><path d="M108 0H70L1-190h34L89-25l56-165h34" id="w"/><path d="M135-143c-3-34-86-38-87 0 15 53 115 12 119 90S17 21 10-45l28-5c4 36 97 45 98 0-10-56-113-15-118-90-4-57 82-63 122-42 12 7 21 19 24 35" id="x"/><path d="M-5 72V49h209v23H-5" id="y"/><path d="M24-231v-30h32v30H24zM24 0v-190h32V0H24" id="z"/><path d="M59-47c-2 24 18 29 38 22v24C64 9 27 4 27-40v-127H5v-23h24l9-43h21v43h35v23H59v120" id="A"/><path d="M141-36C126-15 110 5 73 4 37 3 15-17 15-53c-1-64 63-63 125-63 3-35-9-54-41-54-24 1-41 7-42 31l-33-3c5-37 33-52 76-52 45 0 72 20 72 64v82c-1 20 7 32 28 27v20c-31 9-61-2-59-35zM48-53c0 20 12 33 32 33 41-3 63-29 60-74-43 2-92-5-92 41" id="B"/><path d="M100-194c62-1 85 37 85 99 1 63-27 99-86 99S16-35 15-95c0-66 28-99 85-99zM99-20c44 1 53-31 53-75 0-43-8-75-51-75s-53 32-53 75 10 74 51 75" id="C"/><g id="d"><use transform="matrix(0.048148148148148155,0,0,0.048148148148148155,0,0)" xlink:href="#u"/><use transform="matrix(0.048148148148148155,0,0,0.048148148148148155,5.72962962962963,0)" xlink:href="#v"/><use transform="matrix(0.048148148148148155,0,0,0.048148148148148155,15.359259259259261,0)" xlink:href="#w"/><use transform="matrix(0.048148148148148155,0,0,0.048148148148148155,24.02592592592593,0)" xlink:href="#v"/><use transform="matrix(0.048148148148148155,0,0,0.048148148148148155,33.65555555555556,0)" xlink:href="#u"/><use transform="matrix(0.048148148148148155,0,0,0.048148148148148155,39.385185185185186,0)" xlink:href="#x"/><use transform="matrix(0.048148148148148155,0,0,0.048148148148148155,48.05185185185185,0)" xlink:href="#v"/><use transform="matrix(0.048148148148148155,0,0,0.048148148148148155,57.68148148148148,0)" xlink:href="#y"/><use transform="matrix(0.048148148148148155,0,0,0.048148148148148155,67.31111111111112,0)" xlink:href="#z"/><use transform="matrix(0.048148148148148155,0,0,0.048148148148148155,71.11481481481482,0)" xlink:href="#A"/><use transform="matrix(0.048148148148148155,0,0,0.048148148148148155,75.92962962962963,0)" xlink:href="#v"/><use transform="matrix(0.048148148148148155,0,0,0.048148148148148155,85.55925925925926,0)" xlink:href="#u"/><use transform="matrix(0.048148148148148155,0,0,0.048148148148148155,91.28888888888889,0)" xlink:href="#B"/><use transform="matrix(0.048148148148148155,0,0,0.048148148148148155,100.91851851851854,0)" xlink:href="#A"/><use transform="matrix(0.048148148148148155,0,0,0.048148148148148155,105.73333333333332,0)" xlink:href="#C"/><use transform="matrix(0.048148148148148155,0,0,0.048148148148148155,115.36296296296295,0)" xlink:href="#u"/></g><path d="M128 0H69L1-190h53L99-40l48-150h52" id="D"/><path d="M137-138c1-29-70-34-71-4 15 46 118 7 119 86 1 83-164 76-172 9l43-7c4 19 20 25 44 25 33 8 57-30 24-41C81-84 22-81 20-136c-2-80 154-74 161-7" id="E"/><path d="M-4 44V30h207v14H-4" id="F"/><path d="M133-34C117-15 103 5 69 4 32 3 11-16 11-54c-1-60 55-63 116-61 1-26-3-47-28-47-18 1-26 9-28 27l-52-2c7-38 36-58 82-57s74 22 75 68l1 82c-1 14 12 18 25 15v27c-30 8-71 5-69-32zm-48 3c29 0 43-24 42-57-32 0-66-3-65 30 0 17 8 27 23 27" id="G"/><g id="e"><use transform="matrix(0.048148148148148155,0,0,0.048148148148148155,0,0)" xlink:href="#l"/><use transform="matrix(0.048148148148148155,0,0,0.048148148148148155,6.740740740740741,0)" xlink:href="#j"/><use transform="matrix(0.048148148148148155,0,0,0.048148148148148155,16.370370370370374,0)" xlink:href="#D"/><use transform="matrix(0.048148148148148155,0,0,0.048148148148148155,26.00000000000001,0)" xlink:href="#j"/><use transform="matrix(0.048148148148148155,0,0,0.048148148148148155,35.62962962962964,0)" xlink:href="#l"/><use transform="matrix(0.048148148148148155,0,0,0.048148148148148155,42.37037037037038,0)" xlink:href="#E"/><use transform="matrix(0.048148148148148155,0,0,0.048148148148148155,52.00000000000002,0)" xlink:href="#j"/><use transform="matrix(0.048148148148148155,0,0,0.048148148148148155,61.62962962962965,0)" xlink:href="#F"/><use transform="matrix(0.048148148148148155,0,0,0.048148148148148155,71.25925925925928,0)" xlink:href="#r"/><use transform="matrix(0.048148148148148155,0,0,0.048148148148148155,76.07407407407409,0)" xlink:href="#m"/><use transform="matrix(0.048148148148148155,0,0,0.048148148148148155,81.80370370370372,0)" xlink:href="#j"/><use transform="matrix(0.048148148148148155,0,0,0.048148148148148155,91.43333333333335,0)" xlink:href="#l"/><use transform="matrix(0.048148148148148155,0,0,0.048148148148148155,98.1740740740741,0)" xlink:href="#G"/><use transform="matrix(0.048148148148148155,0,0,0.048148148148148155,107.80370370370375,0)" xlink:href="#m"/><use transform="matrix(0.048148148148148155,0,0,0.048148148148148155,113.53333333333335,0)" xlink:href="#t"/><use transform="matrix(0.048148148148148155,0,0,0.048148148148148155,124.07777777777781,0)" xlink:href="#l"/></g><path d="M18-100v-36l175-74v27L42-118l151 64v27" id="H"/><path d="M18-27v-27l151-64-151-65v-27l175 74v36" id="I"/><g id="f"><use transform="matrix(0.048148148148148155,0,0,0.048148148148148155,0,0)" xlink:href="#H"/><use transform="matrix(0.048148148148148155,0,0,0.048148148148148155,10.111111111111112,0)" xlink:href="#z"/><use transform="matrix(0.048148148148148155,0,0,0.048148148148148155,13.914814814814816,0)" xlink:href="#A"/><use transform="matrix(0.048148148148148155,0,0,0.048148148148148155,18.72962962962963,0)" xlink:href="#v"/><use transform="matrix(0.048148148148148155,0,0,0.048148148148148155,28.359259259259264,0)" xlink:href="#u"/><use transform="matrix(0.048148148148148155,0,0,0.048148148148148155,34.08888888888889,0)" xlink:href="#B"/><use transform="matrix(0.048148148148148155,0,0,0.048148148148148155,43.71851851851852,0)" xlink:href="#A"/><use transform="matrix(0.048148148148148155,0,0,0.048148148148148155,48.53333333333334,0)" xlink:href="#C"/><use transform="matrix(0.048148148148148155,0,0,0.048148148148148155,58.16296296296297,0)" xlink:href="#u"/><use transform="matrix(0.048148148148148155,0,0,0.048148148148148155,63.8925925925926,0)" xlink:href="#I"/></g><path d="M96-169c-40 0-48 33-48 73s9 75 48 75c24 0 41-14 43-38l32 2c-6 37-31 61-74 61-59 0-76-41-82-99-10-93 101-131 147-64 4 7 5 14 7 22l-32 3c-4-21-16-35-41-35" id="J"/><path d="M117-194c89-4 53 116 60 194h-32v-121c0-31-8-49-39-48C34-167 62-67 57 0H25l-1-190h30c1 10-1 24 2 32 11-22 29-35 61-36" id="K"/><g id="g"><use transform="matrix(0.048148148148148155,0,0,0.048148148148148155,0,0)" xlink:href="#J"/><use transform="matrix(0.048148148148148155,0,0,0.048148148148148155,8.666666666666668,0)" xlink:href="#C"/><use transform="matrix(0.048148148148148155,0,0,0.048148148148148155,18.296296296296298,0)" xlink:href="#K"/><use transform="matrix(0.048148148148148155,0,0,0.048148148148148155,27.92592592592593,0)" xlink:href="#x"/><use transform="matrix(0.048148148148148155,0,0,0.048148148148148155,36.592592592592595,0)" xlink:href="#A"/><use transform="matrix(0.048148148148148155,0,0,0.048148148148148155,41.40740740740741,0)" xlink:href="#y"/><use transform="matrix(0.048148148148148155,0,0,0.048148148148148155,51.037037037037045,0)" xlink:href="#u"/><use transform="matrix(0.048148148148148155,0,0,0.048148148148148155,56.76666666666667,0)" xlink:href="#z"/><use transform="matrix(0.048148148148148155,0,0,0.048148148148148155,60.57037037037038,0)" xlink:href="#w"/><use transform="matrix(0.048148148148148155,0,0,0.048148148148148155,69.23703703703704,0)" xlink:href="#v"/><use transform="matrix(0.048148148148148155,0,0,0.048148148148148155,78.86666666666667,0)" xlink:href="#u"/><use transform="matrix(0.048148148148148155,0,0,0.048148148148148155,84.5962962962963,0)" xlink:href="#x"/><use transform="matrix(0.048148148148148155,0,0,0.048148148148148155,93.26296296296297,0)" xlink:href="#v"/><use transform="matrix(0.048148148148148155,0,0,0.048148148148148155,102.8925925925926,0)" xlink:href="#y"/><use transform="matrix(0.048148148148148155,0,0,0.048148148148148155,112.52222222222224,0)" xlink:href="#z"/><use transform="matrix(0.048148148148148155,0,0,0.048148148148148155,116.32592592592594,0)" xlink:href="#A"/><use transform="matrix(0.048148148148148155,0,0,0.048148148148148155,121.14074074074075,0)" xlink:href="#v"/><use transform="matrix(0.048148148148148155,0,0,0.048148148148148155,130.7703703703704,0)" xlink:href="#u"/><use transform="matrix(0.048148148148148155,0,0,0.048148148148148155,136.50000000000003,0)" xlink:href="#B"/><use transform="matrix(0.048148148148148155,0,0,0.048148148148148155,146.12962962962965,0)" xlink:href="#A"/><use transform="matrix(0.048148148148148155,0,0,0.048148148148148155,150.94444444444446,0)" xlink:href="#C"/><use transform="matrix(0.048148148148148155,0,0,0.048148148148148155,160.57407407407408,0)" xlink:href="#u"/></g><g id="h"><use transform="matrix(0.048148148148148155,0,0,0.048148148148148155,0,0)" xlink:href="#H"/><use transform="matrix(0.048148148148148155,0,0,0.048148148148148155,10.111111111111112,0)" xlink:href="#J"/><use transform="matrix(0.048148148148148155,0,0,0.048148148148148155,18.77777777777778,0)" xlink:href="#C"/><use transform="matrix(0.048148148148148155,0,0,0.048148148148148155,28.407407407407412,0)" xlink:href="#K"/><use transform="matrix(0.048148148148148155,0,0,0.048148148148148155,38.037037037037045,0)" xlink:href="#x"/><use transform="matrix(0.048148148148148155,0,0,0.048148148148148155,46.70370370370371,0)" xlink:href="#A"/><use transform="matrix(0.048148148148148155,0,0,0.048148148148148155,51.518518518518526,0)" xlink:href="#y"/><use transform="matrix(0.048148148148148155,0,0,0.048148148148148155,61.14814814814816,0)" xlink:href="#z"/><use transform="matrix(0.048148148148148155,0,0,0.048148148148148155,64.95185185185187,0)" xlink:href="#A"/><use transform="matrix(0.048148148148148155,0,0,0.048148148148148155,69.76666666666668,0)" xlink:href="#v"/><use transform="matrix(0.048148148148148155,0,0,0.048148148148148155,79.39629629629631,0)" xlink:href="#u"/><use transform="matrix(0.048148148148148155,0,0,0.048148148148148155,85.12592592592594,0)" xlink:href="#B"/><use transform="matrix(0.048148148148148155,0,0,0.048148148148148155,94.75555555555557,0)" xlink:href="#A"/><use transform="matrix(0.048148148148148155,0,0,0.048148148148148155,99.57037037037038,0)" xlink:href="#C"/><use transform="matrix(0.048148148148148155,0,0,0.048148148148148155,109.20000000000002,0)" xlink:href="#u"/><use transform="matrix(0.048148148148148155,0,0,0.048148148148148155,114.92962962962964,0)" xlink:href="#I"/></g></defs></g></svg>